<svg width="15" height="17" viewBox="0 0 15 17" fill="none" xmlns="http://www.w3.org/2000/svg">
<path fill-rule="evenodd" clip-rule="evenodd" d="M5.37499 0.708336H9.62499C10.4074 0.708336 11.0417 1.3426 11.0417 2.125V2.83334H13.1667C13.9491 2.83334 14.5833 3.4676 14.5833 4.25V5.66667C14.5833 6.44907 13.9491 7.08334 13.1667 7.08334H13.1099L12.4583 14.875C12.4583 15.6574 11.8241 16.2917 11.0417 16.2917H3.95832C3.17592 16.2917 2.54166 15.6574 2.5441 14.9338L1.8899 7.08334H1.83332C1.05092 7.08334 0.416656 6.44907 0.416656 5.66667V4.25C0.416656 3.4676 1.05092 2.83334 1.83332 2.83334H3.95832V2.125C3.95832 1.3426 4.59259 0.708336 5.37499 0.708336ZM1.83332 4.25L3.95832 4.25H11.0417L13.1667 4.25V5.66667H1.83332V4.25ZM3.95832 14.875L3.31125 7.08334H11.6885L11.0441 14.8162L11.0417 14.875H3.95832ZM9.62499 2.125V2.83334H5.37499V2.125H9.62499Z" fill="#979797"/>
</svg>
